<?xml version="1.0" encoding="utf-8"?>
<!-- Generator: Adobe Illustrator 24.1.1, SVG Export Plug-In . SVG Version: 6.00 Build 0)  -->
<svg version="1.1" id="Layer_1" xmlns:xodm="http://www.corel.com/coreldraw/odm/2003"
	 xmlns="http://www.w3.org/2000/svg" xmlns:xlink="http://www.w3.org/1999/xlink" x="0px" y="0px" viewBox="0 0 10.5 10.5"
	 style="enable-background:new 0 0 10.5 10.5;" xml:space="preserve">
<style type="text/css">
	.st0{fill:#FFFFFF;}
</style>
<g id="Layer_x0020_1">
	<path class="st0" d="M0.5,0h10v1.8H9.7v-1H0.8v1H0V0H0.5L0.5,0z M0.8,8.8v1h8.9v-1h0.8v1.8H0V8.8H0.8L0.8,8.8z"/>
	<path class="st0" d="M5.3,8.5c1.8,0,2.6-0.9,2.6-1.9c0-2.3-3.6-1.5-3.6-2.6c0-0.4,0.3-0.7,1.2-0.7c0.6,0,1.1,0.2,1.7,0.5l0.4-1.1
		C7.1,2.2,6.3,2.1,5.5,2.1C3.7,2.1,2.9,2.9,2.9,4c0,2.3,3.6,1.5,3.6,2.7c0,0.4-0.3,0.7-1.2,0.7c-0.7,0-1.5-0.3-2.1-0.6L2.8,7.8
		C3.3,8.2,4.3,8.5,5.3,8.5z"/>
</g>
</svg>
